<svg id="Layer_1" data-name="Layer 1" xmlns="http://www.w3.org/2000/svg" width="31.22" height="35.58" viewBox="0 0 31.22 35.58">
  <defs>
    <style>
      .cls-1 {
        fill: #fff;
      }
    </style>
  </defs>
  <title>ANTENNA</title>
  <g>
    <g>
      <path class="cls-1" d="M9.18,19.27,10.78,18A9.38,9.38,0,0,1,10.78,6L9.18,4.69A11.44,11.44,0,0,0,9.18,19.27Z" transform="translate(-6.56 -4.69)"/>
      <path class="cls-1" d="M35.24,4.69,33.56,6a9.4,9.4,0,0,1,0,11.92l1.61,1.32a11.49,11.49,0,0,0,0-14.58Z" transform="translate(-6.56 -4.69)"/>
    </g>
    <path class="cls-1" d="M15.6,10a3.14,3.14,0,0,0-.18,3.73l1.74-1.17a1,1,0,0,1,0-1.24Z" transform="translate(-6.56 -4.69)"/>
    <path class="cls-1" d="M12.39,7.35a7.07,7.07,0,0,0-1.65,5.08A7.75,7.75,0,0,0,12,16.06l1.72-1.14A5.29,5.29,0,0,1,14,8.72Z" transform="translate(-6.56 -4.69)"/>
    <path class="cls-1" d="M28.76,14a3.11,3.11,0,0,0,0-4l-1.6,1.32a1.05,1.05,0,0,1,0,1.32Z" transform="translate(-6.56 -4.69)"/>
    <path class="cls-1" d="M32,16.63a7.3,7.3,0,0,0,0-9.28l-1.6,1.37a5.24,5.24,0,0,1,0,6.62Z" transform="translate(-6.56 -4.69)"/>
    <path class="cls-1" d="M35.74,38.18H33.33l-9-23.92a3,3,0,0,0,1-2.28A3.14,3.14,0,0,0,23.24,9V4.69H21.15V9a3.13,3.13,0,0,0-2.09,3,3.07,3.07,0,0,0,1,2.29l-9,23.9H8.64v2.09h27.1Zm-13.5-10.3-2.3-2.15h4.49Zm4.44-1.32L30,35.4l-6.28-6Zm-6,2.79-6.37,6,3.38-8.94Zm1.56,1.4L30,38.22H14.37Zm0-19.76a1,1,0,1,1-1,1h0A1,1,0,0,1,22.24,11Zm0,4.17h.22l3.15,8.4H18.75l3.19-8.48Z" transform="translate(-6.56 -4.69)"/>
  </g>
</svg>
