<svg id="Layer_1" data-name="Layer 1" xmlns="http://www.w3.org/2000/svg" width="20.1" height="35.54" viewBox="0 0 20.1 35.54">
  <defs>
    <style>
      .cls-1 {
        fill: #fff;
      }
    </style>
  </defs>
  <title>ANTENNA_PLATFORM</title>
  <g>
    <path class="cls-1" d="M11.49,36,18,30.94l1.4,1.14-7.9,6.14-7.9-6.14L5,30.94Zm0-2.28L3.59,27.6l7.9-6.14,7.9,6.14-7.9,6.15m0-10.1-5.09,4,5.09,3.95,5.09-3.95Z" transform="translate(-1.4 -2.68)"/>
    <path class="cls-1" d="M17.55,12.68a6.06,6.06,0,0,0-12.11,0,5.84,5.84,0,0,0,2.1,4.57l1.67-1.32a4,4,0,1,1,6.32-3.34,3.87,3.87,0,0,1-1.84,3.34l1.67,1.32a5.65,5.65,0,0,0,2.19-4.57" transform="translate(-1.4 -2.68)"/>
    <path class="cls-1" d="M3.42,12.68a8.08,8.08,0,0,1,16.15,0A7.8,7.8,0,0,1,17,18.56l1.58,1.23a10,10,0,1,0-14.3,0l1.58-1.23a8.33,8.33,0,0,1-2.46-5.88" transform="translate(-1.4 -2.68)"/>
    <path class="cls-1" d="M11.49,10.66a2,2,0,1,0,2,2h0a2,2,0,0,0-1.95-2h-.07" transform="translate(-1.4 -2.68)"/>
  </g>
</svg>
