<svg id="Layer_1" data-name="Layer 1" xmlns="http://www.w3.org/2000/svg" xmlns:xlink="http://www.w3.org/1999/xlink" width="27.7" height="24.9" viewBox="0 0 27.7 24.9" x="11" y="11">
  <defs>
    <style>
      .FACILITY-cls-1 {
        fill: none;
      }

      .FACILITY-cls-2 {
        clip-path: url(#clip-path);
      }

      .FACILITY-cls-3 {
        fill: #fff;
      }
    </style>
    <clipPath  transform="translate(-11.2 -12.6)">
      <rect class="FACILITY-cls-1" width="50" height="50"/>
    </clipPath>
  </defs>
  <title>FACILITY</title>
  <g class="FACILITY-cls-2">
    <g class="FACILITY-cls-2">
      <path class="FACILITY-cls-3" d="M25,18.1V12.6H11.2V37.5H38.9V18.1ZM16.7,34.7H13.9V31.9h2.8Zm0-5.6H13.9V26.3h2.8Zm0-5.5H13.9V20.8h2.8Zm0-5.5H13.9V15.3h2.8Zm5.5,16.6H19.4V31.9h2.8Zm0-5.6H19.4V26.3h2.8Zm0-5.5H19.4V20.8h2.8Zm0-5.5H19.4V15.3h2.8ZM36.1,34.7H25V31.9h2.8V29.1H25V26.3h2.8V23.5H25V20.7H36.1ZM33.3,23.6H30.5v2.8h2.8Zm0,5.5H30.5v2.8h2.8Z" transform="translate(-11.2 -12.6)"/>
    </g>
  </g>
</svg>
