<svg id="Layer_1" data-name="Layer 1" xmlns="http://www.w3.org/2000/svg" width="30.9" height="29" viewBox="0 0 30.9 29" x="10" y="10">
  <defs>
    <style>
      .OTHER_DEVICE-cls-1 {
        fill: #fff;
      }
    </style>
  </defs>
  <title>OTHER_DEVICE</title>
  <g>
    <path class="OTHER_DEVICE-cls-1" d="M22.7,31H12a.54.54,0,0,1-.5-.5V13a.54.54,0,0,1,.5-.5H37.8a.47.47,0,0,1,.5.5v3.8a4.76,4.76,0,0,1,2.1.7V13a2.48,2.48,0,0,0-2.5-2.5H12A2.48,2.48,0,0,0,9.5,13V30.5A2.48,2.48,0,0,0,12,33h8.6v3.4H19.2a1.5,1.5,0,1,0,0,3h4.4a5.12,5.12,0,0,1-.9-2.7Z" transform="translate(-9.5 -10.5)"/>
    <path class="OTHER_DEVICE-cls-1" d="M31.4,38V35.8H26.9V21.5a.47.47,0,0,1,.5-.5H37.7a.47.47,0,0,1,.5.5v4.4H39a2,2,0,0,1,1.3.4V21.5a2.65,2.65,0,0,0-2.6-2.6H27.4a2.65,2.65,0,0,0-2.6,2.6V36.9a2.65,2.65,0,0,0,2.6,2.6h4.5a3.32,3.32,0,0,1-.5-1.5Z" transform="translate(-9.5 -10.5)"/>
    <path class="OTHER_DEVICE-cls-1" d="M39,27.2H34a1.32,1.32,0,0,0-1.3,1.3V38A1.32,1.32,0,0,0,34,39.3h5A1.32,1.32,0,0,0,40.3,38V28.5A1.26,1.26,0,0,0,39,27.2Zm-4.8,1.5h4.5v8.2H34.2Zm2.3,9.9c-.1,0-.3-.1-.4-.1a.6.6,0,0,1-.1-.4.5.5,0,1,1,1,0,.52.52,0,0,1-.2.4c0,.1-.2.1-.3.1Z" transform="translate(-9.5 -10.5)"/>
  </g>
</svg>
