<svg id="Layer_1" data-name="Layer 1" xmlns="http://www.w3.org/2000/svg" width="32" height="26.4" viewBox="0 0 32 26.4" x="10" y="10">
  <defs>
    <style>
      .REPEATER-cls-1 {
        fill: #fff;
      }
    </style>
  </defs>
  <title>REPEATER</title>
  <g>
    <path class="REPEATER-cls-1" d="M25.2,12.5a3.22,3.22,0,0,1,3.2,3.2,3.16,3.16,0,0,1-3.2,3.2,3.2,3.2,0,0,1,0-6.4m0-1.7a4.9,4.9,0,1,0,4.9,4.9,4.91,4.91,0,0,0-4.9-4.9Z" transform="translate(-9.1 -10.8)"/>
    <path class="REPEATER-cls-1" d="M14,29.2a3.22,3.22,0,0,1,3.2,3.2A3.2,3.2,0,1,1,14,29.2m0-1.8a4.9,4.9,0,1,0,4.9,4.9A4.91,4.91,0,0,0,14,27.4Z" transform="translate(-9.1 -10.8)"/>
    <path class="REPEATER-cls-1" d="M36.2,29.2a3.22,3.22,0,0,1,3.2,3.2,3.16,3.16,0,0,1-3.2,3.2A3.24,3.24,0,0,1,33,32.3a3.08,3.08,0,0,1,3.2-3.1m0-1.8a4.9,4.9,0,1,0,4.9,4.9,4.91,4.91,0,0,0-4.9-4.9Z" transform="translate(-9.1 -10.8)"/>
    <path class="REPEATER-cls-1" d="M32.4,27.3a1.23,1.23,0,0,1-.8-.4l-3-4.9a.87.87,0,0,1,1.5-.9l3,4.9a.84.84,0,0,1-.3,1.2C32.7,27.3,32.6,27.3,32.4,27.3Z" transform="translate(-9.1 -10.8)"/>
    <path class="REPEATER-cls-1" d="M17.7,27.3a.9.9,0,0,1-.5-.1,1,1,0,0,1-.3-1.2l3-4.9a.87.87,0,0,1,1.5.9l-3,4.9A.67.67,0,0,1,17.7,27.3Z" transform="translate(-9.1 -10.8)"/>
    <path class="REPEATER-cls-1" d="M29.3,33.7H21a.9.9,0,0,1-.9-.9A.82.82,0,0,1,21,32h8.3a.9.9,0,0,1,.9.9A.82.82,0,0,1,29.3,33.7Z" transform="translate(-9.1 -10.8)"/>
  </g>
</svg>
