<svg id="Layer_1" data-name="Layer 1" xmlns="http://www.w3.org/2000/svg" xmlns:xlink="http://www.w3.org/1999/xlink" width="16.62" height="33" viewBox="0 0 16.62 33"  x="17" y="7">
  <defs>
    <style>
      .TRANSCEIVER-cls-1, .TRANSCEIVER-cls-2 {
        fill: none;
      }

      .TRANSCEIVER-cls-2 {
        clip-path: url(#clip-path);
      }

      .TRANSCEIVER-cls-3 {
        clip-path: url(#clip-path-2);
      }

      .TRANSCEIVER-cls-4 {
        fill: #fff;
      }

      .TRANSCEIVER-cls-5 {
        clip-path: url(#clip-path-5);
      }
    </style>
    <clipPath >
      <rect class="TRANSCEIVER-cls-1" x="16.7" y="8.4" width="16.6" height="33.2"/>
    </clipPath>
    <clipPath  transform="translate(-16.68 -8.4)">
      <rect class="TRANSCEIVER-cls-1" width="50" height="50"/>
    </clipPath>
    <clipPath  transform="translate(-16.68 -8.4)">
      <rect class="TRANSCEIVER-cls-2" x="16.7" y="8.4" width="16.6" height="33.2"/>
    </clipPath>
  </defs>
  <title>TRANSCEIVER</title>
  <g class="TRANSCEIVER-cls-3">
    <g>
      <g class="TRANSCEIVER-cls-3">
        <path class="TRANSCEIVER-cls-4" d="M32.1,21.2h-.8v-.8a1.11,1.11,0,0,0-1.1-1.1H28.7a1.2,1.2,0,0,0-1.2,1.1v.8H24V15.7a1.8,1.8,0,0,0-3.6,0v5.5h-.7a1.2,1.2,0,0,0-1.2,1.1v18a1.13,1.13,0,0,0,1.2,1.1H32.2a1.11,1.11,0,0,0,1.1-1.1v-18a1.28,1.28,0,0,0-1.2-1.1M28.5,39.7H23V37.9h5.5Zm2.8-9.2H20.2V24.9H31.3Z" transform="translate(-16.68 -8.4)"/>
      </g>
      <g class="TRANSCEIVER-cls-3">
        <g>
          <g class="TRANSCEIVER-cls-5">
            <path class="TRANSCEIVER-cls-4" d="M22.1,12.1a.9.9,0,0,0,.9-.9V9.3a.9.9,0,0,0-1.8,0v1.9a.9.9,0,0,0,.9.9" transform="translate(-16.68 -8.4)"/>
            <path class="TRANSCEIVER-cls-4" d="M19.5,13.1a1,1,0,0,0,0-1.3l-1.3-1.3a1,1,0,0,0-1.3,0,1,1,0,0,0,0,1.3l1.3,1.3a.86.86,0,0,0,.6.3.78.78,0,0,0,.7-.3" transform="translate(-16.68 -8.4)"/>
          </g>
          <g class="TRANSCEIVER-cls-3">
            <g class="TRANSCEIVER-cls-3">
              <path class="TRANSCEIVER-cls-4" d="M25.4,13.4a.71.71,0,0,0,.6-.3l1.3-1.3a1,1,0,0,0,0-1.3,1,1,0,0,0-1.3,0l-1.3,1.3a1,1,0,0,0,0,1.3,1.08,1.08,0,0,0,.7.3" transform="translate(-16.68 -8.4)"/>
            </g>
          </g>
        </g>
      </g>
    </g>
  </g>
</svg>
